<svg width="79" height="79" viewBox="0 0 79 79" fill="none" xmlns="http://www.w3.org/2000/svg">
<circle cx="39.5" cy="39.5" r="39.5" fill="white"/>
<path d="M27.9289 54V26H42.2489C45.9289 26 48.6756 26.68 50.4889 28.04C52.3022 29.3733 53.2089 31.1333 53.2089 33.32C53.2089 34.76 52.8222 36.0267 52.0489 37.12C51.3022 38.1867 50.2356 39.04 48.8489 39.68C47.4889 40.2933 45.8622 40.6 43.9689 40.6L44.7689 38.68C46.7422 38.68 48.4622 38.9867 49.9289 39.6C51.3956 40.1867 52.5289 41.0533 53.3289 42.2C54.1556 43.32 54.5689 44.6933 54.5689 46.32C54.5689 48.7467 53.5822 50.64 51.6089 52C49.6622 53.3333 46.8089 54 43.0489 54H27.9289ZM35.7689 48.28H42.4089C43.7689 48.28 44.7956 48.0533 45.4889 47.6C46.2089 47.12 46.5689 46.4 46.5689 45.44C46.5689 44.48 46.2089 43.7733 45.4889 43.32C44.7956 42.84 43.7689 42.6 42.4089 42.6H35.2089V37.12H41.2089C42.5422 37.12 43.5422 36.8933 44.2089 36.44C44.8756 35.9867 45.2089 35.3067 45.2089 34.4C45.2089 33.4933 44.8756 32.8267 44.2089 32.4C43.5422 31.9467 42.5422 31.72 41.2089 31.72H35.7689V48.28Z" fill="#F0F277"/>
</svg>
