<svg width="79" height="79" viewBox="0 0 79 79" fill="none" xmlns="http://www.w3.org/2000/svg">
<circle cx="39.5" cy="39.5" r="39.5" fill="white"/>
<path d="M42.4944 54.56C40.281 54.56 38.2277 54.2133 36.3344 53.52C34.4677 52.8 32.841 51.7867 31.4544 50.48C30.0944 49.1733 29.0277 47.64 28.2544 45.88C27.481 44.0933 27.0944 42.1333 27.0944 40C27.0944 37.8667 27.481 35.92 28.2544 34.16C29.0277 32.3733 30.0944 30.8267 31.4544 29.52C32.841 28.2133 34.4677 27.2133 36.3344 26.52C38.2277 25.8 40.281 25.44 42.4944 25.44C45.081 25.44 47.3877 25.8933 49.4144 26.8C51.4677 27.7067 53.1744 29.0133 54.5344 30.72L49.4944 35.28C48.5877 34.2133 47.5877 33.4 46.4944 32.84C45.4277 32.28 44.2277 32 42.8944 32C41.7477 32 40.6944 32.1867 39.7344 32.56C38.7744 32.9333 37.9477 33.48 37.2544 34.2C36.5877 34.8933 36.0544 35.7333 35.6544 36.72C35.281 37.7067 35.0944 38.8 35.0944 40C35.0944 41.2 35.281 42.2933 35.6544 43.28C36.0544 44.2667 36.5877 45.12 37.2544 45.84C37.9477 46.5333 38.7744 47.0667 39.7344 47.44C40.6944 47.8133 41.7477 48 42.8944 48C44.2277 48 45.4277 47.72 46.4944 47.16C47.5877 46.6 48.5877 45.7867 49.4944 44.72L54.5344 49.28C53.1744 50.96 51.4677 52.2667 49.4144 53.2C47.3877 54.1067 45.081 54.56 42.4944 54.56Z" fill="#FE9494"/>
</svg>
