<svg width="79" height="79" viewBox="0 0 79 79" fill="none" xmlns="http://www.w3.org/2000/svg">
<circle cx="39.5" cy="39.5" r="39.5" fill="white"/>
<path d="M26.7766 54V26H40.0166C43.1099 26 45.8299 26.5733 48.1766 27.72C50.5232 28.8667 52.3499 30.48 53.6566 32.56C54.9899 34.64 55.6566 37.12 55.6566 40C55.6566 42.8533 54.9899 45.3333 53.6566 47.44C52.3499 49.52 50.5232 51.1333 48.1766 52.28C45.8299 53.4267 43.1099 54 40.0166 54H26.7766ZM34.6966 47.68H39.6966C41.2966 47.68 42.6832 47.3867 43.8566 46.8C45.0566 46.1867 45.9899 45.3067 46.6566 44.16C47.3232 42.9867 47.6566 41.6 47.6566 40C47.6566 38.3733 47.3232 36.9867 46.6566 35.84C45.9899 34.6933 45.0566 33.8267 43.8566 33.24C42.6832 32.6267 41.2966 32.32 39.6966 32.32H34.6966V47.68Z" fill="#B9C8FF"/>
</svg>
