<svg width="397" height="217" viewBox="0 0 397 217" fill="none" xmlns="http://www.w3.org/2000/svg">
<rect width="397" height="217" rx="15" fill="white"/>
<ellipse cx="228.815" cy="61.3177" rx="12.7388" ry="15.0907" fill="white"/>
<path d="M256.089 70.9578L251.549 56.9578H255.629L259.449 69.0778H257.389L261.409 56.9578H265.049L268.849 69.0778H266.869L270.809 56.9578H274.589L270.049 70.9578H265.809L262.569 60.6578H263.709L260.329 70.9578H256.089ZM276.101 70.9578V60.1178H279.901V70.9578H276.101ZM278.001 58.9178C277.308 58.9178 276.748 58.7244 276.321 58.3378C275.895 57.9511 275.681 57.4711 275.681 56.8978C275.681 56.3244 275.895 55.8444 276.321 55.4578C276.748 55.0711 277.308 54.8778 278.001 54.8778C278.695 54.8778 279.255 55.0644 279.681 55.4378C280.108 55.7978 280.321 56.2644 280.321 56.8378C280.321 57.4378 280.108 57.9378 279.681 58.3378C279.268 58.7244 278.708 58.9178 278.001 58.9178ZM289.431 59.9378C290.271 59.9378 291.031 60.1111 291.711 60.4578C292.391 60.7911 292.924 61.3111 293.311 62.0178C293.711 62.7244 293.911 63.6378 293.911 64.7578V70.9578H290.111V65.3778C290.111 64.6044 289.951 64.0444 289.631 63.6978C289.324 63.3378 288.891 63.1578 288.331 63.1578C287.931 63.1578 287.564 63.2511 287.231 63.4378C286.898 63.6111 286.638 63.8844 286.451 64.2578C286.264 64.6311 286.171 65.1178 286.171 65.7178V70.9578H282.371V60.1178H285.991V63.1978L285.291 62.2978C285.704 61.5111 286.271 60.9244 286.991 60.5378C287.711 60.1378 288.524 59.9378 289.431 59.9378ZM301.153 71.1378C300.167 71.1378 299.267 70.9111 298.453 70.4578C297.653 69.9911 297.013 69.3444 296.533 68.5178C296.053 67.6778 295.813 66.6778 295.813 65.5178C295.813 64.3711 296.053 63.3844 296.533 62.5578C297.013 61.7178 297.653 61.0711 298.453 60.6178C299.267 60.1644 300.167 59.9378 301.153 59.9378C302.087 59.9378 302.873 60.1378 303.513 60.5378C304.167 60.9378 304.66 61.5511 304.993 62.3778C305.327 63.2044 305.493 64.2511 305.493 65.5178C305.493 66.8111 305.333 67.8711 305.013 68.6978C304.693 69.5244 304.213 70.1378 303.573 70.5378C302.933 70.9378 302.127 71.1378 301.153 71.1378ZM301.953 68.1178C302.38 68.1178 302.76 68.0178 303.093 67.8178C303.44 67.6178 303.713 67.3244 303.913 66.9378C304.113 66.5378 304.213 66.0644 304.213 65.5178C304.213 64.9711 304.113 64.5111 303.913 64.1378C303.713 63.7511 303.44 63.4578 303.093 63.2578C302.76 63.0578 302.38 62.9578 301.953 62.9578C301.513 62.9578 301.12 63.0578 300.773 63.2578C300.44 63.4578 300.173 63.7511 299.973 64.1378C299.773 64.5111 299.673 64.9711 299.673 65.5178C299.673 66.0644 299.773 66.5378 299.973 66.9378C300.173 67.3244 300.44 67.6178 300.773 67.8178C301.12 68.0178 301.513 68.1178 301.953 68.1178ZM304.333 70.9578V69.0978L304.353 65.5178L304.153 61.9378V56.1178H307.953V70.9578H304.333Z" fill="white"/>
<rect x="172" y="83" width="52" height="52" rx="15" fill="#6A5BE1"/>
<path d="M195.817 121V104.71H189.367V100H208.177V104.71H201.757V121H195.817Z" fill="white"/>
</svg>
