<svg width="397" height="217" viewBox="0 0 397 217" fill="none" xmlns="http://www.w3.org/2000/svg">
<rect width="397" height="217" rx="15" fill="#6A5BE1"/>
<rect x="16.4476" y="17.956" width="176.409" height="86.3416" rx="15" fill="#67E383"/>
<rect x="204.466" y="17.956" width="176.409" height="86.3416" rx="15" fill="#F0F277"/>
<rect x="16.4476" y="113.084" width="176.409" height="86.3416" rx="15" fill="#FE9494"/>
<rect x="204.466" y="113.084" width="176.409" height="86.3416" rx="15" fill="#B9C8FF"/>
<ellipse cx="42.409" cy="61.3177" rx="12.7388" ry="15.0907" fill="white"/>
<path d="M36.6255 65.9578L41.2605 55.4578H44.1855L48.8355 65.9578H45.7455L42.1155 56.9128H43.2855L39.6555 65.9578H36.6255ZM39.1605 63.9178L39.9255 61.7278H45.0555L45.8205 63.9178H39.1605Z" fill="#67E383"/>
<path d="M69.8629 62.3778H76.3629V65.3378H69.8629V62.3778ZM70.1429 67.8978H77.4629V70.9578H66.2229V56.9578H77.2029V60.0178H70.1429V67.8978ZM86.0614 70.9578V68.9378L85.8014 68.4378V64.7178C85.8014 64.1178 85.6147 63.6578 85.2414 63.3378C84.8814 63.0044 84.3014 62.8378 83.5014 62.8378C82.9814 62.8378 82.4547 62.9244 81.9214 63.0978C81.388 63.2578 80.9347 63.4844 80.5614 63.7778L79.2814 61.1978C79.8947 60.7978 80.628 60.4911 81.4814 60.2778C82.348 60.0511 83.208 59.9378 84.0614 59.9378C85.8214 59.9378 87.1814 60.3444 88.1414 61.1578C89.1147 61.9578 89.6014 63.2178 89.6014 64.9378V70.9578H86.0614ZM82.8614 71.1378C81.9947 71.1378 81.2614 70.9911 80.6614 70.6978C80.0614 70.4044 79.6014 70.0044 79.2814 69.4978C78.9747 68.9911 78.8214 68.4244 78.8214 67.7978C78.8214 67.1311 78.988 66.5578 79.3214 66.0778C79.668 65.5844 80.1947 65.2111 80.9014 64.9578C81.608 64.6911 82.5214 64.5578 83.6414 64.5578H86.2014V66.5378H84.1614C83.548 66.5378 83.1147 66.6378 82.8614 66.8378C82.6214 67.0378 82.5014 67.3044 82.5014 67.6378C82.5014 67.9711 82.628 68.2378 82.8814 68.4378C83.1347 68.6378 83.4814 68.7378 83.9214 68.7378C84.3347 68.7378 84.708 68.6378 85.0414 68.4378C85.388 68.2244 85.6414 67.9044 85.8014 67.4778L86.3214 68.8778C86.1214 69.6244 85.728 70.1911 85.1414 70.5778C84.568 70.9511 83.808 71.1378 82.8614 71.1378ZM92 70.9578V60.1178H95.62V63.2778L95.08 62.3778C95.4 61.5644 95.92 60.9578 96.64 60.5578C97.36 60.1444 98.2333 59.9378 99.26 59.9378V63.3578C99.0866 63.3311 98.9333 63.3178 98.8 63.3178C98.68 63.3044 98.5466 63.2978 98.4 63.2978C97.6266 63.2978 97 63.5111 96.52 63.9378C96.04 64.3511 95.8 65.0311 95.8 65.9778V70.9578H92ZM106 71.1378C104.613 71.1378 103.533 70.7978 102.76 70.1178C101.987 69.4244 101.6 68.3844 101.6 66.9978V57.6978H105.4V66.9578C105.4 67.3444 105.507 67.6511 105.72 67.8778C105.933 68.0911 106.207 68.1978 106.54 68.1978C106.993 68.1978 107.38 68.0844 107.7 67.8578L108.64 70.5178C108.32 70.7311 107.927 70.8844 107.46 70.9778C106.993 71.0844 106.507 71.1378 106 71.1378ZM100.02 63.3578V60.5178H107.88V63.3578H100.02ZM117.165 59.9378C118.005 59.9378 118.765 60.1111 119.445 60.4578C120.125 60.7911 120.659 61.3111 121.045 62.0178C121.445 62.7244 121.645 63.6378 121.645 64.7578V70.9578H117.845V65.3778C117.845 64.6044 117.685 64.0444 117.365 63.6978C117.059 63.3378 116.625 63.1578 116.065 63.1578C115.665 63.1578 115.299 63.2511 114.965 63.4378C114.632 63.6111 114.372 63.8844 114.185 64.2578C113.999 64.6311 113.905 65.1178 113.905 65.7178V70.9578H110.105V56.1178H113.905V63.1978L113.025 62.2978C113.439 61.5111 114.005 60.9244 114.725 60.5378C115.445 60.1378 116.259 59.9378 117.165 59.9378Z" fill="white"/>
<ellipse cx="228.815" cy="61.3177" rx="12.7388" ry="15.0907" fill="white"/>
<path d="M224.424 65.9578V55.4578H229.794C231.174 55.4578 232.204 55.7128 232.884 56.2228C233.564 56.7228 233.904 57.3828 233.904 58.2028C233.904 58.7428 233.759 59.2178 233.469 59.6278C233.189 60.0278 232.789 60.3478 232.269 60.5878C231.759 60.8178 231.149 60.9328 230.439 60.9328L230.739 60.2128C231.479 60.2128 232.124 60.3278 232.674 60.5578C233.224 60.7778 233.649 61.1028 233.949 61.5328C234.259 61.9528 234.414 62.4678 234.414 63.0778C234.414 63.9878 234.044 64.6978 233.304 65.2078C232.574 65.7078 231.504 65.9578 230.094 65.9578H224.424ZM227.364 63.8128H229.854C230.364 63.8128 230.749 63.7278 231.009 63.5578C231.279 63.3778 231.414 63.1078 231.414 62.7478C231.414 62.3878 231.279 62.1228 231.009 61.9528C230.749 61.7728 230.364 61.6828 229.854 61.6828H227.154V59.6278H229.404C229.904 59.6278 230.279 59.5428 230.529 59.3728C230.779 59.2028 230.904 58.9478 230.904 58.6078C230.904 58.2678 230.779 58.0178 230.529 57.8578C230.279 57.6878 229.904 57.6028 229.404 57.6028H227.364V63.8128Z" fill="#F0F277"/>
<path d="M256.089 70.9578L251.549 56.9578H255.629L259.449 69.0778H257.389L261.409 56.9578H265.049L268.849 69.0778H266.869L270.809 56.9578H274.589L270.049 70.9578H265.809L262.569 60.6578H263.709L260.329 70.9578H256.089ZM276.101 70.9578V60.1178H279.901V70.9578H276.101ZM278.001 58.9178C277.308 58.9178 276.748 58.7244 276.321 58.3378C275.895 57.9511 275.681 57.4711 275.681 56.8978C275.681 56.3244 275.895 55.8444 276.321 55.4578C276.748 55.0711 277.308 54.8778 278.001 54.8778C278.695 54.8778 279.255 55.0644 279.681 55.4378C280.108 55.7978 280.321 56.2644 280.321 56.8378C280.321 57.4378 280.108 57.9378 279.681 58.3378C279.268 58.7244 278.708 58.9178 278.001 58.9178ZM289.431 59.9378C290.271 59.9378 291.031 60.1111 291.711 60.4578C292.391 60.7911 292.924 61.3111 293.311 62.0178C293.711 62.7244 293.911 63.6378 293.911 64.7578V70.9578H290.111V65.3778C290.111 64.6044 289.951 64.0444 289.631 63.6978C289.324 63.3378 288.891 63.1578 288.331 63.1578C287.931 63.1578 287.564 63.2511 287.231 63.4378C286.898 63.6111 286.638 63.8844 286.451 64.2578C286.264 64.6311 286.171 65.1178 286.171 65.7178V70.9578H282.371V60.1178H285.991V63.1978L285.291 62.2978C285.704 61.5111 286.271 60.9244 286.991 60.5378C287.711 60.1378 288.524 59.9378 289.431 59.9378ZM301.153 71.1378C300.167 71.1378 299.267 70.9111 298.453 70.4578C297.653 69.9911 297.013 69.3444 296.533 68.5178C296.053 67.6778 295.813 66.6778 295.813 65.5178C295.813 64.3711 296.053 63.3844 296.533 62.5578C297.013 61.7178 297.653 61.0711 298.453 60.6178C299.267 60.1644 300.167 59.9378 301.153 59.9378C302.087 59.9378 302.873 60.1378 303.513 60.5378C304.167 60.9378 304.66 61.5511 304.993 62.3778C305.327 63.2044 305.493 64.2511 305.493 65.5178C305.493 66.8111 305.333 67.8711 305.013 68.6978C304.693 69.5244 304.213 70.1378 303.573 70.5378C302.933 70.9378 302.127 71.1378 301.153 71.1378ZM301.953 68.1178C302.38 68.1178 302.76 68.0178 303.093 67.8178C303.44 67.6178 303.713 67.3244 303.913 66.9378C304.113 66.5378 304.213 66.0644 304.213 65.5178C304.213 64.9711 304.113 64.5111 303.913 64.1378C303.713 63.7511 303.44 63.4578 303.093 63.2578C302.76 63.0578 302.38 62.9578 301.953 62.9578C301.513 62.9578 301.12 63.0578 300.773 63.2578C300.44 63.4578 300.173 63.7511 299.973 64.1378C299.773 64.5111 299.673 64.9711 299.673 65.5178C299.673 66.0644 299.773 66.5378 299.973 66.9378C300.173 67.3244 300.44 67.6178 300.773 67.8178C301.12 68.0178 301.513 68.1178 301.953 68.1178ZM304.333 70.9578V69.0978L304.353 65.5178L304.153 61.9378V56.1178H307.953V70.9578H304.333Z" fill="white"/>
<ellipse cx="229.46" cy="156.446" rx="12.7388" ry="15.0907" fill="white"/>
<path d="M224.636 161.086V150.586H229.601C230.761 150.586 231.781 150.801 232.661 151.231C233.541 151.661 234.226 152.266 234.716 153.046C235.216 153.826 235.466 154.756 235.466 155.836C235.466 156.906 235.216 157.836 234.716 158.626C234.226 159.406 233.541 160.011 232.661 160.441C231.781 160.871 230.761 161.086 229.601 161.086H224.636ZM227.606 158.716H229.481C230.081 158.716 230.601 158.606 231.041 158.386C231.491 158.156 231.841 157.826 232.091 157.396C232.341 156.956 232.466 156.436 232.466 155.836C232.466 155.226 232.341 154.706 232.091 154.276C231.841 153.846 231.491 153.521 231.041 153.301C230.601 153.071 230.081 152.956 229.481 152.956H227.606V158.716Z" fill="#B9C8FF"/>
<path d="M256.734 166.086L252.194 152.086H256.274L260.094 164.206H258.034L262.054 152.086H265.694L269.494 164.206H267.514L271.454 152.086H275.234L270.694 166.086H266.454L263.214 155.786H264.354L260.974 166.086H256.734ZM282.292 166.086V164.066L282.032 163.566V159.846C282.032 159.246 281.846 158.786 281.472 158.466C281.112 158.133 280.532 157.966 279.732 157.966C279.212 157.966 278.686 158.053 278.152 158.226C277.619 158.386 277.166 158.613 276.792 158.906L275.512 156.326C276.126 155.926 276.859 155.62 277.712 155.406C278.579 155.18 279.439 155.066 280.292 155.066C282.052 155.066 283.412 155.473 284.372 156.286C285.346 157.086 285.832 158.346 285.832 160.066V166.086H282.292ZM279.092 166.266C278.226 166.266 277.492 166.12 276.892 165.826C276.292 165.533 275.832 165.133 275.512 164.626C275.206 164.12 275.052 163.553 275.052 162.926C275.052 162.26 275.219 161.686 275.552 161.206C275.899 160.713 276.426 160.34 277.132 160.086C277.839 159.82 278.752 159.686 279.872 159.686H282.432V161.666H280.392C279.779 161.666 279.346 161.766 279.092 161.966C278.852 162.166 278.732 162.433 278.732 162.766C278.732 163.1 278.859 163.366 279.112 163.566C279.366 163.766 279.712 163.866 280.152 163.866C280.566 163.866 280.939 163.766 281.272 163.566C281.619 163.353 281.872 163.033 282.032 162.606L282.552 164.006C282.352 164.753 281.959 165.32 281.372 165.706C280.799 166.08 280.039 166.266 279.092 166.266ZM293.071 166.266C291.684 166.266 290.604 165.926 289.831 165.246C289.057 164.553 288.671 163.513 288.671 162.126V152.826H292.471V162.086C292.471 162.473 292.577 162.78 292.791 163.006C293.004 163.22 293.277 163.326 293.611 163.326C294.064 163.326 294.451 163.213 294.771 162.986L295.711 165.646C295.391 165.86 294.997 166.013 294.531 166.106C294.064 166.213 293.577 166.266 293.071 166.266ZM287.091 158.486V155.646H294.951V158.486H287.091ZM302.544 166.266C301.264 166.266 300.144 166.026 299.184 165.546C298.237 165.053 297.497 164.386 296.964 163.546C296.444 162.693 296.184 161.726 296.184 160.646C296.184 159.566 296.437 158.606 296.944 157.766C297.464 156.913 298.177 156.253 299.084 155.786C299.99 155.306 301.01 155.066 302.144 155.066C303.21 155.066 304.184 155.286 305.064 155.726C305.944 156.153 306.644 156.786 307.164 157.626C307.684 158.466 307.944 159.486 307.944 160.686C307.944 160.82 307.937 160.973 307.924 161.146C307.91 161.32 307.897 161.48 307.884 161.626H299.304V159.626H305.864L304.424 160.186C304.437 159.693 304.344 159.266 304.144 158.906C303.957 158.546 303.69 158.266 303.344 158.066C303.01 157.866 302.617 157.766 302.164 157.766C301.71 157.766 301.31 157.866 300.964 158.066C300.63 158.266 300.37 158.553 300.184 158.926C299.997 159.286 299.904 159.713 299.904 160.206V160.786C299.904 161.32 300.01 161.78 300.224 162.166C300.45 162.553 300.77 162.853 301.184 163.066C301.597 163.266 302.09 163.366 302.664 163.366C303.197 163.366 303.65 163.293 304.024 163.146C304.41 162.986 304.79 162.746 305.164 162.426L307.164 164.506C306.644 165.08 306.004 165.52 305.244 165.826C304.484 166.12 303.584 166.266 302.544 166.266ZM309.696 166.086V155.246H313.316V158.406L312.776 157.506C313.096 156.693 313.616 156.086 314.336 155.686C315.056 155.273 315.929 155.066 316.956 155.066V158.486C316.782 158.46 316.629 158.446 316.496 158.446C316.376 158.433 316.242 158.426 316.096 158.426C315.322 158.426 314.696 158.64 314.216 159.066C313.736 159.48 313.496 160.16 313.496 161.106V166.086H309.696Z" fill="white"/>
<ellipse cx="43.054" cy="156.446" rx="12.7388" ry="15.0907" fill="white"/>
<path d="M44.1244 161.296C43.2944 161.296 42.5244 161.166 41.8144 160.906C41.1144 160.636 40.5044 160.256 39.9844 159.766C39.4744 159.276 39.0744 158.701 38.7844 158.041C38.4944 157.371 38.3494 156.636 38.3494 155.836C38.3494 155.036 38.4944 154.306 38.7844 153.646C39.0744 152.976 39.4744 152.396 39.9844 151.906C40.5044 151.416 41.1144 151.041 41.8144 150.781C42.5244 150.511 43.2944 150.376 44.1244 150.376C45.0944 150.376 45.9594 150.546 46.7194 150.886C47.4894 151.226 48.1294 151.716 48.6394 152.356L46.7494 154.066C46.4094 153.666 46.0344 153.361 45.6244 153.151C45.2244 152.941 44.7744 152.836 44.2744 152.836C43.8444 152.836 43.4494 152.906 43.0894 153.046C42.7294 153.186 42.4194 153.391 42.1594 153.661C41.9094 153.921 41.7094 154.236 41.5594 154.606C41.4194 154.976 41.3494 155.386 41.3494 155.836C41.3494 156.286 41.4194 156.696 41.5594 157.066C41.7094 157.436 41.9094 157.756 42.1594 158.026C42.4194 158.286 42.7294 158.486 43.0894 158.626C43.4494 158.766 43.8444 158.836 44.2744 158.836C44.7744 158.836 45.2244 158.731 45.6244 158.521C46.0344 158.311 46.4094 158.006 46.7494 157.606L48.6394 159.316C48.1294 159.946 47.4894 160.436 46.7194 160.786C45.9594 161.126 45.0944 161.296 44.1244 161.296Z" fill="#FE9494"/>
<path d="M70.5479 158.226H77.0079V161.286H70.5479V158.226ZM70.8279 166.086H66.8679V152.086H77.8479V155.146H70.8279V166.086ZM79.5199 166.086V155.246H83.3199V166.086H79.5199ZM81.4199 154.046C80.7266 154.046 80.1666 153.853 79.7399 153.466C79.3133 153.08 79.0999 152.6 79.0999 152.026C79.0999 151.453 79.3133 150.973 79.7399 150.586C80.1666 150.2 80.7266 150.006 81.4199 150.006C82.1133 150.006 82.6733 150.193 83.0999 150.566C83.5266 150.926 83.7399 151.393 83.7399 151.966C83.7399 152.566 83.5266 153.066 83.0999 153.466C82.6866 153.853 82.1266 154.046 81.4199 154.046ZM85.7895 166.086V155.246H89.4095V158.406L88.8695 157.506C89.1895 156.693 89.7095 156.086 90.4295 155.686C91.1495 155.273 92.0228 155.066 93.0495 155.066V158.486C92.8761 158.46 92.7228 158.446 92.5895 158.446C92.4695 158.433 92.3361 158.426 92.1895 158.426C91.4161 158.426 90.7895 158.64 90.3095 159.066C89.8295 159.48 89.5895 160.16 89.5895 161.106V166.086H85.7895ZM100.2 166.266C98.9199 166.266 97.7999 166.026 96.8399 165.546C95.8933 165.053 95.1533 164.386 94.6199 163.546C94.0999 162.693 93.8399 161.726 93.8399 160.646C93.8399 159.566 94.0933 158.606 94.5999 157.766C95.1199 156.913 95.8333 156.253 96.7399 155.786C97.6466 155.306 98.6666 155.066 99.7999 155.066C100.867 155.066 101.84 155.286 102.72 155.726C103.6 156.153 104.3 156.786 104.82 157.626C105.34 158.466 105.6 159.486 105.6 160.686C105.6 160.82 105.593 160.973 105.58 161.146C105.567 161.32 105.553 161.48 105.54 161.626H96.9599V159.626H103.52L102.08 160.186C102.093 159.693 102 159.266 101.8 158.906C101.613 158.546 101.347 158.266 101 158.066C100.667 157.866 100.273 157.766 99.8199 157.766C99.3666 157.766 98.9666 157.866 98.6199 158.066C98.2866 158.266 98.0266 158.553 97.8399 158.926C97.6533 159.286 97.5599 159.713 97.5599 160.206V160.786C97.5599 161.32 97.6666 161.78 97.8799 162.166C98.1066 162.553 98.4266 162.853 98.8399 163.066C99.2533 163.266 99.7466 163.366 100.32 163.366C100.853 163.366 101.307 163.293 101.68 163.146C102.067 162.986 102.447 162.746 102.82 162.426L104.82 164.506C104.3 165.08 103.66 165.52 102.9 165.826C102.14 166.12 101.24 166.266 100.2 166.266Z" fill="white"/>
</svg>
