<svg width="293" height="58" viewBox="0 0 293 58" fill="none" xmlns="http://www.w3.org/2000/svg">
<rect width="293" height="58" rx="15" fill="white"/>
<path d="M115.318 44.56C112.918 44.56 110.784 43.9867 108.918 42.84C107.078 41.6933 105.624 40.04 104.558 37.88C103.491 35.72 102.958 33.0933 102.958 30C102.958 26.9067 103.491 24.28 104.558 22.12C105.624 19.96 107.078 18.3067 108.918 17.16C110.784 16.0133 112.918 15.44 115.318 15.44C117.691 15.44 119.798 16.0133 121.638 17.16C123.504 18.3067 124.971 19.96 126.038 22.12C127.104 24.28 127.638 26.9067 127.638 30C127.638 33.0933 127.104 35.72 126.038 37.88C124.971 40.04 123.504 41.6933 121.638 42.84C119.798 43.9867 117.691 44.56 115.318 44.56ZM115.318 38.08C116.171 38.08 116.918 37.8133 117.558 37.28C118.224 36.7467 118.744 35.8933 119.118 34.72C119.491 33.52 119.678 31.9467 119.678 30C119.678 28.0267 119.491 26.4533 119.118 25.28C118.744 24.1067 118.224 23.2533 117.558 22.72C116.918 22.1867 116.171 21.92 115.318 21.92C114.464 21.92 113.704 22.1867 113.038 22.72C112.398 23.2533 111.878 24.1067 111.478 25.28C111.104 26.4533 110.918 28.0267 110.918 30C110.918 31.9467 111.104 33.52 111.478 34.72C111.878 35.8933 112.398 36.7467 113.038 37.28C113.704 37.8133 114.464 38.08 115.318 38.08ZM134.62 30.96C133.34 30.96 132.26 30.5333 131.38 29.68C130.5 28.8267 130.06 27.7467 130.06 26.44C130.06 25.08 130.5 24 131.38 23.2C132.26 22.3733 133.34 21.96 134.62 21.96C135.9 21.96 136.98 22.3733 137.86 23.2C138.74 24 139.18 25.08 139.18 26.44C139.18 27.7467 138.74 28.8267 137.86 29.68C136.98 30.5333 135.9 30.96 134.62 30.96ZM134.62 44.36C133.34 44.36 132.26 43.9333 131.38 43.08C130.5 42.2267 130.06 41.1467 130.06 39.84C130.06 38.48 130.5 37.4 131.38 36.6C132.26 35.7733 133.34 35.36 134.62 35.36C135.9 35.36 136.98 35.7733 137.86 36.6C138.74 37.4 139.18 38.48 139.18 39.84C139.18 41.1467 138.74 42.2267 137.86 43.08C136.98 43.9333 135.9 44.36 134.62 44.36ZM154.029 44.56C151.629 44.56 149.495 43.9867 147.629 42.84C145.789 41.6933 144.335 40.04 143.269 37.88C142.202 35.72 141.669 33.0933 141.669 30C141.669 26.9067 142.202 24.28 143.269 22.12C144.335 19.96 145.789 18.3067 147.629 17.16C149.495 16.0133 151.629 15.44 154.029 15.44C156.402 15.44 158.509 16.0133 160.349 17.16C162.215 18.3067 163.682 19.96 164.749 22.12C165.815 24.28 166.349 26.9067 166.349 30C166.349 33.0933 165.815 35.72 164.749 37.88C163.682 40.04 162.215 41.6933 160.349 42.84C158.509 43.9867 156.402 44.56 154.029 44.56ZM154.029 38.08C154.882 38.08 155.629 37.8133 156.269 37.28C156.935 36.7467 157.455 35.8933 157.829 34.72C158.202 33.52 158.389 31.9467 158.389 30C158.389 28.0267 158.202 26.4533 157.829 25.28C157.455 24.1067 156.935 23.2533 156.269 22.72C155.629 22.1867 154.882 21.92 154.029 21.92C153.175 21.92 152.415 22.1867 151.749 22.72C151.109 23.2533 150.589 24.1067 150.189 25.28C149.815 26.4533 149.629 28.0267 149.629 30C149.629 31.9467 149.815 33.52 150.189 34.72C150.589 35.8933 151.109 36.7467 151.749 37.28C152.415 37.8133 153.175 38.08 154.029 38.08ZM178.021 44.56C176.074 44.56 174.127 44.32 172.181 43.84C170.261 43.36 168.581 42.68 167.141 41.8L170.021 35.84C171.141 36.5867 172.381 37.16 173.741 37.56C175.127 37.96 176.474 38.16 177.781 38.16C179.141 38.16 180.221 37.9067 181.021 37.4C181.821 36.8933 182.221 36.1733 182.221 35.24C182.221 34.4133 181.887 33.76 181.221 33.28C180.554 32.7733 179.461 32.52 177.941 32.52H174.621V27.52L182.141 19.4L182.901 22.12H168.581V16H188.821V20.96L181.301 29.08L177.421 26.88H179.581C183.074 26.88 185.714 27.6667 187.501 29.24C189.314 30.7867 190.221 32.7867 190.221 35.24C190.221 36.84 189.781 38.3467 188.901 39.76C188.047 41.1733 186.727 42.3333 184.941 43.24C183.154 44.12 180.847 44.56 178.021 44.56Z" fill="#6A5BE1"/>
</svg>
