<svg width="397" height="217" viewBox="0 0 397 217" fill="none" xmlns="http://www.w3.org/2000/svg">
<rect width="397" height="217" rx="15" fill="#6A5BE1"/>
<ellipse cx="228.815" cy="61.3177" rx="12.7388" ry="15.0907" fill="#6A5BE1"/>
<path d="M256.089 70.9578L251.549 56.9578H255.629L259.449 69.0778H257.389L261.409 56.9578H265.049L268.849 69.0778H266.869L270.809 56.9578H274.589L270.049 70.9578H265.809L262.569 60.6578H263.709L260.329 70.9578H256.089ZM276.101 70.9578V60.1178H279.901V70.9578H276.101ZM278.001 58.9178C277.308 58.9178 276.748 58.7244 276.321 58.3378C275.895 57.9511 275.681 57.4711 275.681 56.8978C275.681 56.3244 275.895 55.8444 276.321 55.4578C276.748 55.0711 277.308 54.8778 278.001 54.8778C278.695 54.8778 279.255 55.0644 279.681 55.4378C280.108 55.7978 280.321 56.2644 280.321 56.8378C280.321 57.4378 280.108 57.9378 279.681 58.3378C279.268 58.7244 278.708 58.9178 278.001 58.9178ZM289.431 59.9378C290.271 59.9378 291.031 60.1111 291.711 60.4578C292.391 60.7911 292.924 61.3111 293.311 62.0178C293.711 62.7244 293.911 63.6378 293.911 64.7578V70.9578H290.111V65.3778C290.111 64.6044 289.951 64.0444 289.631 63.6978C289.324 63.3378 288.891 63.1578 288.331 63.1578C287.931 63.1578 287.564 63.2511 287.231 63.4378C286.898 63.6111 286.638 63.8844 286.451 64.2578C286.264 64.6311 286.171 65.1178 286.171 65.7178V70.9578H282.371V60.1178H285.991V63.1978L285.291 62.2978C285.704 61.5111 286.271 60.9244 286.991 60.5378C287.711 60.1378 288.524 59.9378 289.431 59.9378ZM301.153 71.1378C300.167 71.1378 299.267 70.9111 298.453 70.4578C297.653 69.9911 297.013 69.3444 296.533 68.5178C296.053 67.6778 295.813 66.6778 295.813 65.5178C295.813 64.3711 296.053 63.3844 296.533 62.5578C297.013 61.7178 297.653 61.0711 298.453 60.6178C299.267 60.1644 300.167 59.9378 301.153 59.9378C302.087 59.9378 302.873 60.1378 303.513 60.5378C304.167 60.9378 304.66 61.5511 304.993 62.3778C305.327 63.2044 305.493 64.2511 305.493 65.5178C305.493 66.8111 305.333 67.8711 305.013 68.6978C304.693 69.5244 304.213 70.1378 303.573 70.5378C302.933 70.9378 302.127 71.1378 301.153 71.1378ZM301.953 68.1178C302.38 68.1178 302.76 68.0178 303.093 67.8178C303.44 67.6178 303.713 67.3244 303.913 66.9378C304.113 66.5378 304.213 66.0644 304.213 65.5178C304.213 64.9711 304.113 64.5111 303.913 64.1378C303.713 63.7511 303.44 63.4578 303.093 63.2578C302.76 63.0578 302.38 62.9578 301.953 62.9578C301.513 62.9578 301.12 63.0578 300.773 63.2578C300.44 63.4578 300.173 63.7511 299.973 64.1378C299.773 64.5111 299.673 64.9711 299.673 65.5178C299.673 66.0644 299.773 66.5378 299.973 66.9378C300.173 67.3244 300.44 67.6178 300.773 67.8178C301.12 68.0178 301.513 68.1178 301.953 68.1178ZM304.333 70.9578V69.0978L304.353 65.5178L304.153 61.9378V56.1178H307.953V70.9578H304.333Z" fill="#6A5BE1"/>
<rect x="52" y="79" width="293" height="58" rx="15" fill="white"/>
<path d="M167.318 123.56C164.918 123.56 162.784 122.987 160.918 121.84C159.078 120.693 157.624 119.04 156.558 116.88C155.491 114.72 154.958 112.093 154.958 109C154.958 105.907 155.491 103.28 156.558 101.12C157.624 98.96 159.078 97.3067 160.918 96.16C162.784 95.0133 164.918 94.44 167.318 94.44C169.691 94.44 171.798 95.0133 173.638 96.16C175.504 97.3067 176.971 98.96 178.038 101.12C179.104 103.28 179.638 105.907 179.638 109C179.638 112.093 179.104 114.72 178.038 116.88C176.971 119.04 175.504 120.693 173.638 121.84C171.798 122.987 169.691 123.56 167.318 123.56ZM167.318 117.08C168.171 117.08 168.918 116.813 169.558 116.28C170.224 115.747 170.744 114.893 171.118 113.72C171.491 112.52 171.678 110.947 171.678 109C171.678 107.027 171.491 105.453 171.118 104.28C170.744 103.107 170.224 102.253 169.558 101.72C168.918 101.187 168.171 100.92 167.318 100.92C166.464 100.92 165.704 101.187 165.038 101.72C164.398 102.253 163.878 103.107 163.478 104.28C163.104 105.453 162.918 107.027 162.918 109C162.918 110.947 163.104 112.52 163.478 113.72C163.878 114.893 164.398 115.747 165.038 116.28C165.704 116.813 166.464 117.08 167.318 117.08ZM186.62 109.96C185.34 109.96 184.26 109.533 183.38 108.68C182.5 107.827 182.06 106.747 182.06 105.44C182.06 104.08 182.5 103 183.38 102.2C184.26 101.373 185.34 100.96 186.62 100.96C187.9 100.96 188.98 101.373 189.86 102.2C190.74 103 191.18 104.08 191.18 105.44C191.18 106.747 190.74 107.827 189.86 108.68C188.98 109.533 187.9 109.96 186.62 109.96ZM186.62 123.36C185.34 123.36 184.26 122.933 183.38 122.08C182.5 121.227 182.06 120.147 182.06 118.84C182.06 117.48 182.5 116.4 183.38 115.6C184.26 114.773 185.34 114.36 186.62 114.36C187.9 114.36 188.98 114.773 189.86 115.6C190.74 116.4 191.18 117.48 191.18 118.84C191.18 120.147 190.74 121.227 189.86 122.08C188.98 122.933 187.9 123.36 186.62 123.36ZM206.029 123.56C203.629 123.56 201.495 122.987 199.629 121.84C197.789 120.693 196.335 119.04 195.269 116.88C194.202 114.72 193.669 112.093 193.669 109C193.669 105.907 194.202 103.28 195.269 101.12C196.335 98.96 197.789 97.3067 199.629 96.16C201.495 95.0133 203.629 94.44 206.029 94.44C208.402 94.44 210.509 95.0133 212.349 96.16C214.215 97.3067 215.682 98.96 216.749 101.12C217.815 103.28 218.349 105.907 218.349 109C218.349 112.093 217.815 114.72 216.749 116.88C215.682 119.04 214.215 120.693 212.349 121.84C210.509 122.987 208.402 123.56 206.029 123.56ZM206.029 117.08C206.882 117.08 207.629 116.813 208.269 116.28C208.935 115.747 209.455 114.893 209.829 113.72C210.202 112.52 210.389 110.947 210.389 109C210.389 107.027 210.202 105.453 209.829 104.28C209.455 103.107 208.935 102.253 208.269 101.72C207.629 101.187 206.882 100.92 206.029 100.92C205.175 100.92 204.415 101.187 203.749 101.72C203.109 102.253 202.589 103.107 202.189 104.28C201.815 105.453 201.629 107.027 201.629 109C201.629 110.947 201.815 112.52 202.189 113.72C202.589 114.893 203.109 115.747 203.749 116.28C204.415 116.813 205.175 117.08 206.029 117.08ZM230.021 123.56C228.074 123.56 226.127 123.32 224.181 122.84C222.261 122.36 220.581 121.68 219.141 120.8L222.021 114.84C223.141 115.587 224.381 116.16 225.741 116.56C227.127 116.96 228.474 117.16 229.781 117.16C231.141 117.16 232.221 116.907 233.021 116.4C233.821 115.893 234.221 115.173 234.221 114.24C234.221 113.413 233.887 112.76 233.221 112.28C232.554 111.773 231.461 111.52 229.941 111.52H226.621V106.52L234.141 98.4L234.901 101.12H220.581V95H240.821V99.96L233.301 108.08L229.421 105.88H231.581C235.074 105.88 237.714 106.667 239.501 108.24C241.314 109.787 242.221 111.787 242.221 114.24C242.221 115.84 241.781 117.347 240.901 118.76C240.047 120.173 238.727 121.333 236.941 122.24C235.154 123.12 232.847 123.56 230.021 123.56Z" fill="#6A5BE1"/>
</svg>
